<svg width="192" height="45" viewBox="0 0 192 45" fill="none" xmlns="http://www.w3.org/2000/svg">
<g clip-path="url(#clip0_2_10)">
<path d="M24.3344 7.03932C24.1486 6.9526 24 7.03932 24 7.24992V32.3859L35.0093 37.8864C35.5542 38.1589 36 37.8864 36 37.267V13.0725C36 12.9486 35.9381 12.8371 35.8266 12.7875L24.3344 7.03932Z" fill="#D0D2D3"/>
<path d="M12 26.39L23.8019 7.20037C23.9133 7.02694 24.1486 6.95261 24.3344 7.05171L35.7399 12.7504C35.8762 12.8247 35.9381 12.9981 35.8514 13.1344L24 32.3859L12 26.39Z" fill="#A6A8AB"/>
<path d="M1.32504 7.54724C0.594387 7.17559 0.346709 7.44814 0.780146 8.15427L12 26.39L24 32.3983L12.0743 13.0105C12.0247 12.9238 11.9504 12.8619 11.8637 12.8123L1.32504 7.54724Z" fill="#808184"/>
<path d="M12 37.2794C12 37.8864 11.5542 38.1713 11.0093 37.8988L0.668731 32.7204C0.297214 32.5346 0 32.0515 0 31.6426V7.62158C0 7.21277 0.297214 7.02694 0.668731 7.21277L11.8514 12.8123C11.9381 12.8619 12 12.9486 12 13.0477V37.2794Z" fill="#58595B"/>
</g>
<path d="M76.16 36L73.532 8.856H64.496L62.732 18.252C62.408 19.944 62.228 21.6 62.012 23.292H61.94L59.852 8.856H50.708L47.54 36H55.424L56.036 24.948C56.144 22.932 56.108 20.952 56.144 18.936H56.216L58.772 36H64.748L66.836 24.876C67.196 22.896 67.448 20.916 67.772 18.936H67.844L68.528 36H76.16ZM78.867 36H92.511V29.592H86.211V25.452H91.863V19.044H86.211V15.264H92.511V8.856H78.867V36ZM96.8319 36H103.24C107.704 36 115.588 34.848 115.588 22.32C115.588 14.112 111.088 8.856 102.736 8.856H96.8319V36ZM104.176 15.624C107.524 15.624 108.1 19.728 108.1 22.68C108.1 25.236 107.524 29.412 104.176 29.448V15.624ZM138.489 36L132.729 8.856H123.765L117.249 36H124.809L125.421 32.508H130.353L130.893 36H138.489ZM126.393 26.748L127.401 20.448C127.689 18.756 127.869 17.028 128.085 15.336H128.157C128.337 17.028 128.481 18.756 128.697 20.448L129.489 26.748H126.393ZM167.918 36L165.29 8.856H156.254L154.49 18.252C154.166 19.944 153.986 21.6 153.77 23.292H153.698L151.61 8.856H142.466L139.298 36H147.182L147.794 24.948C147.902 22.932 147.866 20.952 147.902 18.936H147.974L150.53 36H156.506L158.594 24.876C158.954 22.896 159.206 20.916 159.53 18.936H159.602L160.286 36H167.918ZM170.625 36H177.681V28.044C177.681 25.488 177.357 22.968 177.177 20.412L177.249 20.34L182.721 36H189.777V8.856H182.721V15.768C182.721 18.9 183.261 21.996 183.549 25.128L183.477 25.2L177.609 8.856H170.625V36Z" fill="white"/>
<defs>
<clipPath id="clip0_2_10">
<rect width="36" height="31" fill="white" transform="translate(0 7)"/>
</clipPath>
</defs>
</svg>
